<svg xmlns="http://www.w3.org/2000/svg" width="1200" height="840" viewBox="0 0 1200 840" font-family="'Microsoft YaHei',sans-serif"><rect width="1200" height="840" fill="#F6F4EF"/><defs><clipPath id="moonClip"><circle cx="100" cy="128" r="74"/></clipPath></defs><g transform="translate(0 0)"><path d="M108 148 C118 138 130 130 142 128 C148 116 162 114 168 124 C176 132 174 148 170 162 C166 178 172 192 178 204 C190 196 210 192 230 194 C248 196 258 202 262 212 C266 220 258 226 248 224 C232 220 218 228 210 240 C202 250 190 250 182 242 C172 232 168 216 166 200 C162 180 156 162 148 152 C140 146 122 150 108 148 Z" transform="translate(-34.64 -25.2) scale(0.72)" fill="#1C2735"/><polygon points="180,240 190,240 192,306 182,306" transform="translate(-34.64 -25.2) scale(0.72)" fill="#1C2735"/><polygon points="212,240 222,240 224,306 214,306" transform="translate(-34.64 -25.2) scale(0.72)" fill="#1C2735"/><text x="100" y="252" text-anchor="middle" font-size="13" fill="#8A97A5">剪影</text></g><g transform="translate(200 0)"><path d="M108 148 C118 138 130 130 142 128 C148 116 162 114 168 124 C176 132 174 148 170 162 C166 178 172 192 178 204 C190 196 210 192 230 194 C248 196 258 202 262 212 C266 220 258 226 248 224 C232 220 218 228 210 240 C202 250 190 250 182 242 C172 232 168 216 166 200 C162 180 156 162 148 152 C140 146 122 150 108 148 Z" transform="translate(-34.64 -25.2) scale(0.72)" fill="none" stroke="#1C2735" stroke-width="3.2"/><polygon points="180,240 190,240 192,306 182,306" transform="translate(-34.64 -25.2) scale(0.72)" fill="none" stroke="#1C2735" stroke-width="3.2"/><polygon points="212,240 222,240 224,306 214,306" transform="translate(-34.64 -25.2) scale(0.72)" fill="none" stroke="#1C2735" stroke-width="3.2"/><text x="100" y="252" text-anchor="middle" font-size="13" fill="#8A97A5">线稿</text></g><g transform="translate(400 0)"><path d="M108 148 C118 138 130 130 142 128 C148 116 162 114 168 124 C176 132 174 148 170 162 C166 178 172 192 178 204 C190 196 210 192 230 194 C248 196 258 202 262 212 C266 220 258 226 248 224 C232 220 218 228 210 240 C202 250 190 250 182 242 C172 232 168 216 166 200 C162 180 156 162 148 152 C140 146 122 150 108 148 Z" transform="translate(-34.64 -25.2) scale(0.72)" fill="none" stroke="#1C2735" stroke-width="8.5"/><polygon points="180,240 190,240 192,306 182,306" transform="translate(-34.64 -25.2) scale(0.72)" fill="none" stroke="#1C2735" stroke-width="8.5"/><polygon points="212,240 222,240 224,306 214,306" transform="translate(-34.64 -25.2) scale(0.72)" fill="none" stroke="#1C2735" stroke-width="8.5"/><text x="100" y="252" text-anchor="middle" font-size="13" fill="#8A97A5">粗描</text></g><g transform="translate(600 0)"><path d="M108 148 C118 138 130 130 142 128 C148 116 162 114 168 124 C176 132 174 148 170 162 C166 178 172 192 178 204 C190 196 210 192 230 194 C248 196 258 202 262 212 C266 220 258 226 248 224 C232 220 218 228 210 240 C202 250 190 250 182 242 C172 232 168 216 166 200 C162 180 156 162 148 152 C140 146 122 150 108 148 Z" transform="translate(-45.86 -37.8) scale(0.78)" fill="#1C2735"/><polygon points="180,240 190,240 192,306 182,306" transform="translate(-45.86 -37.8) scale(0.78)" fill="#1C2735"/><polygon points="212,240 222,240 224,306 214,306" transform="translate(-45.86 -37.8) scale(0.78)" fill="#1C2735"/><path d="M108 148 C118 138 130 130 142 128 C148 116 162 114 168 124 C176 132 174 148 170 162 C166 178 172 192 178 204 C190 196 210 192 230 194 C248 196 258 202 262 212 C266 220 258 226 248 224 C232 220 218 228 210 240 C202 250 190 250 182 242 C172 232 168 216 166 200 C162 180 156 162 148 152 C140 146 122 150 108 148 Z" transform="translate(-8.46 4.2) scale(0.58)" fill="#F6F4EF"/><polygon points="180,240 190,240 192,306 182,306" transform="translate(-8.46 4.2) scale(0.58)" fill="#F6F4EF"/><polygon points="212,240 222,240 224,306 214,306" transform="translate(-8.46 4.2) scale(0.58)" fill="#F6F4EF"/><text x="100" y="252" text-anchor="middle" font-size="13" fill="#8A97A5">双线</text></g><g transform="translate(800 0)"><circle cx="100" cy="126" r="74" fill="#1C2735"/><path d="M108 148 C118 138 130 130 142 128 C148 116 162 114 168 124 C176 132 174 148 170 162 C166 178 172 192 178 204 C190 196 210 192 230 194 C248 196 258 202 262 212 C266 220 258 226 248 224 C232 220 218 228 210 240 C202 250 190 250 182 242 C172 232 168 216 166 200 C162 180 156 162 148 152 C140 146 122 150 108 148 Z" transform="translate(-12.2 0) scale(0.6)" fill="#F6F4EF"/><polygon points="180,240 190,240 192,306 182,306" transform="translate(-12.2 0) scale(0.6)" fill="#F6F4EF"/><polygon points="212,240 222,240 224,306 214,306" transform="translate(-12.2 0) scale(0.6)" fill="#F6F4EF"/><text x="100" y="252" text-anchor="middle" font-size="13" fill="#8A97A5">圆·负空间</text></g><g transform="translate(1000 0)"><rect x="26" y="52" width="148" height="148" rx="34" fill="#1C2735"/><path d="M108 148 C118 138 130 130 142 128 C148 116 162 114 168 124 C176 132 174 148 170 162 C166 178 172 192 178 204 C190 196 210 192 230 194 C248 196 258 202 262 212 C266 220 258 226 248 224 C232 220 218 228 210 240 C202 250 190 250 182 242 C172 232 168 216 166 200 C162 180 156 162 148 152 C140 146 122 150 108 148 Z" transform="translate(-12.2 0) scale(0.6)" fill="#F6F4EF"/><polygon points="180,240 190,240 192,306 182,306" transform="translate(-12.2 0) scale(0.6)" fill="#F6F4EF"/><polygon points="212,240 222,240 224,306 214,306" transform="translate(-12.2 0) scale(0.6)" fill="#F6F4EF"/><text x="100" y="252" text-anchor="middle" font-size="13" fill="#8A97A5">方·负空间</text></g><g transform="translate(0 280)"><circle cx="100" cy="126" r="76" fill="none" stroke="#1C2735" stroke-width="3.5"/><circle cx="100" cy="126" r="66" fill="none" stroke="#1C2735" stroke-width="1"/><path d="M108 148 C118 138 130 130 142 128 C148 116 162 114 168 124 C176 132 174 148 170 162 C166 178 172 192 178 204 C190 196 210 192 230 194 C248 196 258 202 262 212 C266 220 258 226 248 224 C232 220 218 228 210 240 C202 250 190 250 182 242 C172 232 168 216 166 200 C162 180 156 162 148 152 C140 146 122 150 108 148 Z" transform="translate(-4.72 6.4) scale(0.56)" fill="#1C2735"/><polygon points="180,240 190,240 192,306 182,306" transform="translate(-4.72 6.4) scale(0.56)" fill="#1C2735"/><polygon points="212,240 222,240 224,306 214,306" transform="translate(-4.72 6.4) scale(0.56)" fill="#1C2735"/><path d="M66 176 C80 170 94 172 100 178 C106 172 120 170 134 176" fill="none" stroke="#1C2735" stroke-width="2" opacity="0.5"/><text x="100" y="252" text-anchor="middle" font-size="13" fill="#8A97A5">圆徽章</text></g><g transform="translate(200 280)"><path d="M100 46 C128 62 142 86 142 112 C142 142 118 160 100 170 C82 160 58 142 58 112 C58 86 72 62 100 46 Z" fill="#1C2735"/><path d="M108 148 C118 138 130 130 142 128 C148 116 162 114 168 124 C176 132 174 148 170 162 C166 178 172 192 178 204 C190 196 210 192 230 194 C248 196 258 202 262 212 C266 220 258 226 248 224 C232 220 218 228 210 240 C202 250 190 250 182 242 C172 232 168 216 166 200 C162 180 156 162 148 152 C140 146 122 150 108 148 Z" transform="translate(2.76 14.8) scale(0.52)" fill="#F6F4EF"/><polygon points="180,240 190,240 192,306 182,306" transform="translate(2.76 14.8) scale(0.52)" fill="#F6F4EF"/><polygon points="212,240 222,240 224,306 214,306" transform="translate(2.76 14.8) scale(0.52)" fill="#F6F4EF"/><text x="100" y="252" text-anchor="middle" font-size="13" fill="#8A97A5">盾徽</text></g><g transform="translate(400 280)"><text x="58" y="158" font-size="86" font-weight="900" fill="#1C2735" font-family="Arial,sans-serif">L</text><path d="M108 148 C118 138 130 130 142 128 C148 116 162 114 168 124 C176 132 174 148 170 162 C166 178 172 192 178 204 C190 196 210 192 230 194 C248 196 258 202 262 212 C266 220 258 226 248 224 C232 220 218 228 210 240 C202 250 190 250 182 242 C172 232 168 216 166 200 C162 180 156 162 148 152 C140 146 122 150 108 148 Z" transform="translate(47.46 27.8) scale(0.42)" fill="#1C2735"/><polygon points="180,240 190,240 192,306 182,306" transform="translate(47.46 27.8) scale(0.42)" fill="#1C2735"/><polygon points="212,240 222,240 224,306 214,306" transform="translate(47.46 27.8) scale(0.42)" fill="#1C2735"/><text x="100" y="252" text-anchor="middle" font-size="13" fill="#8A97A5">字母 L</text></g><g transform="translate(600 280)"><rect x="34" y="58" width="132" height="132" rx="10" fill="none" stroke="#C2403A" stroke-width="7"/><path d="M108 148 C118 138 130 130 142 128 C148 116 162 114 168 124 C176 132 174 148 170 162 C166 178 172 192 178 204 C190 196 210 192 230 194 C248 196 258 202 262 212 C266 220 258 226 248 224 C232 220 218 228 210 240 C202 250 190 250 182 242 C172 232 168 216 166 200 C162 180 156 162 148 152 C140 146 122 150 108 148 Z" transform="translate(-3.24 12.8) scale(0.52)" fill="none" stroke="#C2403A" stroke-width="3.4"/><polygon points="180,240 190,240 192,306 182,306" transform="translate(-3.24 12.8) scale(0.52)" fill="none" stroke="#C2403A" stroke-width="3.4"/><polygon points="212,240 222,240 224,306 214,306" transform="translate(-3.24 12.8) scale(0.52)" fill="none" stroke="#C2403A" stroke-width="3.4"/><text x="138" y="92" font-size="24" font-weight="700" fill="#C2403A" font-family="KaiTi,serif">鹭</text><text x="100" y="252" text-anchor="middle" font-size="13" fill="#8A97A5">朱印</text></g><g transform="translate(800 280)"><g fill="#1C2735"><polygon points="88,88 104,74 112,90"/><polygon points="98,88 108,82 120,116 106,120"/><polygon points="94,118 130,106 140,134 112,146"/><polygon points="132,110 148,114 138,128"/><rect x="104" y="142" width="5" height="28" rx="2"/><rect x="122" y="140" width="5" height="26" rx="2"/></g><text x="100" y="252" text-anchor="middle" font-size="13" fill="#8A97A5">几何</text></g><g transform="translate(1000 280)"><polygon points="100,44 152,126 100,208 48,126" fill="#1C2735"/><path d="M108 148 C118 138 130 130 142 128 C148 116 162 114 168 124 C176 132 174 148 170 162 C166 178 172 192 178 204 C190 196 210 192 230 194 C248 196 258 202 262 212 C266 220 258 226 248 224 C232 220 218 228 210 240 C202 250 190 250 182 242 C172 232 168 216 166 200 C162 180 156 162 148 152 C140 146 122 150 108 148 Z" transform="translate(6.5 21) scale(0.5)" fill="#F6F4EF"/><polygon points="180,240 190,240 192,306 182,306" transform="translate(6.5 21) scale(0.5)" fill="#F6F4EF"/><polygon points="212,240 222,240 224,306 214,306" transform="translate(6.5 21) scale(0.5)" fill="#F6F4EF"/><text x="100" y="252" text-anchor="middle" font-size="13" fill="#8A97A5">菱形</text></g><g transform="translate(0 560)"><circle cx="100" cy="126" r="72" fill="none" stroke="#1C2735" stroke-width="7"/><path d="M108 148 C118 138 130 130 142 128 C148 116 162 114 168 124 C176 132 174 148 170 162 C166 178 172 192 178 204 C190 196 210 192 230 194 C248 196 258 202 262 212 C266 220 258 226 248 224 C232 220 218 228 210 240 C202 250 190 250 182 242 C172 232 168 216 166 200 C162 180 156 162 148 152 C140 146 122 150 108 148 Z" transform="translate(-8.46 4.2) scale(0.58)" fill="none" stroke="#1C2735" stroke-width="4.5"/><polygon points="180,240 190,240 192,306 182,306" transform="translate(-8.46 4.2) scale(0.58)" fill="none" stroke="#1C2735" stroke-width="4.5"/><polygon points="212,240 222,240 224,306 214,306" transform="translate(-8.46 4.2) scale(0.58)" fill="none" stroke="#1C2735" stroke-width="4.5"/><circle cx="128" cy="112" r="6" fill="#C96F2A"/><text x="100" y="252" text-anchor="middle" font-size="13" fill="#8A97A5">圆润</text></g><g transform="translate(200 560)"><circle cx="100" cy="128" r="74" fill="#1C2735"/><g clip-path="url(#moonClip)"><path d="M108 148 C118 138 130 130 142 128 C148 116 162 114 168 124 C176 132 174 148 170 162 C166 178 172 192 178 204 C190 196 210 192 230 194 C248 196 258 202 262 212 C266 220 258 226 248 224 C232 220 218 228 210 240 C202 250 190 250 182 242 C172 232 168 216 166 200 C162 180 156 162 148 152 C140 146 122 150 108 148 Z" transform="translate(-23.42 9.4) scale(0.66)" fill="#F6F4EF"/><polygon points="180,240 190,240 192,306 182,306" transform="translate(-23.42 9.4) scale(0.66)" fill="#F6F4EF"/><polygon points="212,240 222,240 224,306 214,306" transform="translate(-23.42 9.4) scale(0.66)" fill="#F6F4EF"/></g><path d="M30 168 H170" stroke="#F6F4EF" stroke-width="2.5" opacity="0.55"/><text x="100" y="252" text-anchor="middle" font-size="13" fill="#8A97A5">半月</text></g><g transform="translate(400 560)"><path d="M108 148 C118 138 130 130 142 128 C148 116 162 114 168 124 C176 132 174 148 170 162 C166 178 172 192 178 204 C190 196 210 192 230 194 C248 196 258 202 262 212 C266 220 258 226 248 224 C232 220 218 228 210 240 C202 250 190 250 182 242 C172 232 168 216 166 200 C162 180 156 162 148 152 C140 146 122 150 108 148 Z" transform="translate(-12.2 -2) scale(0.6)" fill="#1C2735"/><polygon points="180,240 190,240 192,306 182,306" transform="translate(-12.2 -2) scale(0.6)" fill="#1C2735"/><polygon points="212,240 222,240 224,306 214,306" transform="translate(-12.2 -2) scale(0.6)" fill="#1C2735"/><circle cx="100" cy="126" r="78" fill="none" stroke="#1C2735" stroke-width="2" opacity="0.35"/><g stroke="#1C2735" stroke-width="2.5" stroke-linecap="round"><path d="M100 40 V52 M100 200 V212 M14 126 H26 M174 126 H186"/></g><text x="100" y="252" text-anchor="middle" font-size="13" fill="#8A97A5">准星</text></g><g transform="translate(600 560)"><polygon points="100,44 147,72 147,184 100,212 53,184 53,72" fill="#1C2735"/><path d="M108 148 C118 138 130 130 142 128 C148 116 162 114 168 124 C176 132 174 148 170 162 C166 178 172 192 178 204 C190 196 210 192 230 194 C248 196 258 202 262 212 C266 220 258 226 248 224 C232 220 218 228 210 240 C202 250 190 250 182 242 C172 232 168 216 166 200 C162 180 156 162 148 152 C140 146 122 150 108 148 Z" transform="translate(2.76 16.8) scale(0.52)" fill="#F6F4EF"/><polygon points="180,240 190,240 192,306 182,306" transform="translate(2.76 16.8) scale(0.52)" fill="#F6F4EF"/><polygon points="212,240 222,240 224,306 214,306" transform="translate(2.76 16.8) scale(0.52)" fill="#F6F4EF"/><text x="100" y="252" text-anchor="middle" font-size="13" fill="#8A97A5">六边形</text></g><g transform="translate(800 560)"><rect x="28" y="54" width="144" height="144" rx="36" fill="#C96F2A"/><path d="M108 148 C118 138 130 130 142 128 C148 116 162 114 168 124 C176 132 174 148 170 162 C166 178 172 192 178 204 C190 196 210 192 230 194 C248 196 258 202 262 212 C266 220 258 226 248 224 C232 220 218 228 210 240 C202 250 190 250 182 242 C172 232 168 216 166 200 C162 180 156 162 148 152 C140 146 122 150 108 148 Z" transform="translate(-12.2 0) scale(0.6)" fill="#1C2735"/><polygon points="180,240 190,240 192,306 182,306" transform="translate(-12.2 0) scale(0.6)" fill="#1C2735"/><polygon points="212,240 222,240 224,306 214,306" transform="translate(-12.2 0) scale(0.6)" fill="#1C2735"/><text x="100" y="252" text-anchor="middle" font-size="13" fill="#8A97A5">双色</text></g><g transform="translate(1000 560)"><path d="M108 148 C118 138 130 130 142 128 C148 116 162 114 168 124 C176 132 174 148 170 162 C166 178 172 192 178 204 C190 196 210 192 230 194 C248 196 258 202 262 212 C266 220 258 226 248 224 C232 220 218 228 210 240 C202 250 190 250 182 242 C172 232 168 216 166 200 C162 180 156 162 148 152 C140 146 122 150 108 148 Z" transform="translate(-4.72 -11.6) scale(0.56)" fill="#1C2735"/><path d="M108 148 C118 138 130 130 142 128 C148 116 162 114 168 124 C176 132 174 148 170 162 C166 178 172 192 178 204 C190 196 210 192 230 194 C248 196 258 202 262 212 C266 220 258 226 248 224 C232 220 218 228 210 240 C202 250 190 250 182 242 C172 232 168 216 166 200 C162 180 156 162 148 152 C140 146 122 150 108 148 Z" transform="translate(100 222) scale(0.56 -0.56) translate(-187 -210)" fill="#1C2735" opacity="0.28"/><path d="M26 168 H174" stroke="#1C2735" stroke-width="2.5"/><text x="100" y="252" text-anchor="middle" font-size="13" fill="#8A97A5">镜像</text></g></svg>